<svg id="visual" viewBox="0 0 900 600" width="900" height="600" xmlns="http://www.w3.org/2000/svg" xmlns:xlink="http://www.w3.org/1999/xlink" version="1.1"><g stroke-width="1" stroke-linejoin="bevel"><path d="M438 297L492 223L416 236Z" fill="#001934" stroke="#001934"></path><path d="M438 297L518 334L492 223Z" fill="#001934" stroke="#001934"></path><path d="M518 334L572 271L492 223Z" fill="#272a7b" stroke="#272a7b"></path><path d="M438 297L519 366L518 334Z" fill="#032359" stroke="#032359"></path><path d="M518 334L617 422L572 271Z" fill="#001934" stroke="#001934"></path><path d="M529 89L432 101L492 223Z" fill="#14276a" stroke="#14276a"></path><path d="M492 223L432 101L416 236Z" fill="#0a2662" stroke="#0a2662"></path><path d="M285 304L416 412L438 297Z" fill="#002150" stroke="#002150"></path><path d="M438 297L416 412L519 366Z" fill="#032359" stroke="#032359"></path><path d="M432 101L299 193L416 236Z" fill="#001c3e" stroke="#001c3e"></path><path d="M416 236L285 304L438 297Z" fill="#272a7b" stroke="#272a7b"></path><path d="M572 271L621 180L492 223Z" fill="#001934" stroke="#001934"></path><path d="M299 193L285 304L416 236Z" fill="#272a7b" stroke="#272a7b"></path><path d="M621 180L529 89L492 223Z" fill="#1d2973" stroke="#1d2973"></path><path d="M621 180L611 93L529 89Z" fill="#032359" stroke="#032359"></path><path d="M497 516L617 422L519 366Z" fill="#14276a" stroke="#14276a"></path><path d="M519 366L617 422L518 334Z" fill="#032359" stroke="#032359"></path><path d="M572 271L686 206L621 180Z" fill="#001122" stroke="#001122"></path><path d="M226 322L264 380L285 304Z" fill="#0a2662" stroke="#0a2662"></path><path d="M285 304L264 380L416 412Z" fill="#001934" stroke="#001934"></path><path d="M694 336L686 206L572 271Z" fill="#002150" stroke="#002150"></path><path d="M621 180L734 111L611 93Z" fill="#002150" stroke="#002150"></path><path d="M382 0L289 88L432 101Z" fill="#001122" stroke="#001122"></path><path d="M432 101L289 88L299 193Z" fill="#001e47" stroke="#001e47"></path><path d="M299 193L232 177L285 304Z" fill="#00152b" stroke="#00152b"></path><path d="M289 88L232 177L299 193Z" fill="#001934" stroke="#001934"></path><path d="M232 177L226 322L285 304Z" fill="#032359" stroke="#032359"></path><path d="M680 380L694 336L572 271Z" fill="#001c3e" stroke="#001c3e"></path><path d="M308 473L429 507L416 412Z" fill="#001934" stroke="#001934"></path><path d="M416 412L497 516L519 366Z" fill="#001c3e" stroke="#001c3e"></path><path d="M617 422L680 380L572 271Z" fill="#272a7b" stroke="#272a7b"></path><path d="M429 507L497 516L416 412Z" fill="#14276a" stroke="#14276a"></path><path d="M617 422L698 530L680 380Z" fill="#001c3e" stroke="#001c3e"></path><path d="M194 389L308 473L264 380Z" fill="#002150" stroke="#002150"></path><path d="M264 380L308 473L416 412Z" fill="#002150" stroke="#002150"></path><path d="M582 0L534 0L529 89Z" fill="#272a7b" stroke="#272a7b"></path><path d="M529 89L534 0L432 101Z" fill="#001e47" stroke="#001e47"></path><path d="M534 0L382 0L432 101Z" fill="#001122" stroke="#001122"></path><path d="M611 93L582 0L529 89Z" fill="#001c3e" stroke="#001c3e"></path><path d="M723 0L582 0L611 93Z" fill="#0a2662" stroke="#0a2662"></path><path d="M92 285L194 389L226 322Z" fill="#001122" stroke="#001122"></path><path d="M226 322L194 389L264 380Z" fill="#001934" stroke="#001934"></path><path d="M497 516L594 520L617 422Z" fill="#032359" stroke="#032359"></path><path d="M382 0L287 0L289 88Z" fill="#1d2973" stroke="#1d2973"></path><path d="M289 88L162 116L232 177Z" fill="#00152b" stroke="#00152b"></path><path d="M825 168L734 111L686 206Z" fill="#001122" stroke="#001122"></path><path d="M686 206L734 111L621 180Z" fill="#001c3e" stroke="#001c3e"></path><path d="M192 0L162 116L289 88Z" fill="#002150" stroke="#002150"></path><path d="M232 177L92 285L226 322Z" fill="#001934" stroke="#001934"></path><path d="M680 380L778 378L694 336Z" fill="#0a2662" stroke="#0a2662"></path><path d="M694 336L831 266L686 206Z" fill="#002150" stroke="#002150"></path><path d="M782 466L778 378L680 380Z" fill="#0a2662" stroke="#0a2662"></path><path d="M294 600L411 600L308 473Z" fill="#14276a" stroke="#14276a"></path><path d="M308 473L411 600L429 507Z" fill="#0a2662" stroke="#0a2662"></path><path d="M429 507L411 600L497 516Z" fill="#001934" stroke="#001934"></path><path d="M497 516L511 600L594 520Z" fill="#001122" stroke="#001122"></path><path d="M411 600L511 600L497 516Z" fill="#00152b" stroke="#00152b"></path><path d="M594 520L698 530L617 422Z" fill="#001e47" stroke="#001e47"></path><path d="M194 389L222 531L308 473Z" fill="#032359" stroke="#032359"></path><path d="M619 600L698 530L594 520Z" fill="#1d2973" stroke="#1d2973"></path><path d="M74 176L92 285L232 177Z" fill="#00152b" stroke="#00152b"></path><path d="M194 389L109 432L222 531Z" fill="#001e47" stroke="#001e47"></path><path d="M807 85L723 0L734 111Z" fill="#0a2662" stroke="#0a2662"></path><path d="M734 111L723 0L611 93Z" fill="#032359" stroke="#032359"></path><path d="M287 0L192 0L289 88Z" fill="#001c3e" stroke="#001c3e"></path><path d="M162 116L74 176L232 177Z" fill="#001c3e" stroke="#001c3e"></path><path d="M778 378L831 266L694 336Z" fill="#1d2973" stroke="#1d2973"></path><path d="M831 266L825 168L686 206Z" fill="#002150" stroke="#002150"></path><path d="M511 600L619 600L594 520Z" fill="#001934" stroke="#001934"></path><path d="M222 531L294 600L308 473Z" fill="#0a2662" stroke="#0a2662"></path><path d="M698 530L782 466L680 380Z" fill="#001122" stroke="#001122"></path><path d="M778 378L900 314L831 266Z" fill="#001122" stroke="#001122"></path><path d="M781 600L782 466L698 530Z" fill="#00152b" stroke="#00152b"></path><path d="M825 168L807 85L734 111Z" fill="#002150" stroke="#002150"></path><path d="M92 285L109 432L194 389Z" fill="#1d2973" stroke="#1d2973"></path><path d="M222 531L238 600L294 600Z" fill="#1d2973" stroke="#1d2973"></path><path d="M104 70L74 176L162 116Z" fill="#00152b" stroke="#00152b"></path><path d="M0 494L113 526L109 432Z" fill="#0a2662" stroke="#0a2662"></path><path d="M192 0L104 70L162 116Z" fill="#001934" stroke="#001934"></path><path d="M113 526L238 600L222 531Z" fill="#14276a" stroke="#14276a"></path><path d="M192 0L126 0L104 70Z" fill="#001934" stroke="#001934"></path><path d="M619 600L699 600L698 530Z" fill="#1d2973" stroke="#1d2973"></path><path d="M0 433L109 432L92 285Z" fill="#001c3e" stroke="#001c3e"></path><path d="M109 432L113 526L222 531Z" fill="#00152b" stroke="#00152b"></path><path d="M831 266L900 191L825 168Z" fill="#001934" stroke="#001934"></path><path d="M825 168L900 135L807 85Z" fill="#0a2662" stroke="#0a2662"></path><path d="M900 436L900 314L778 378Z" fill="#001122" stroke="#001122"></path><path d="M900 436L778 378L782 466Z" fill="#1d2973" stroke="#1d2973"></path><path d="M900 314L900 191L831 266Z" fill="#032359" stroke="#032359"></path><path d="M900 0L830 0L807 85Z" fill="#001122" stroke="#001122"></path><path d="M807 85L830 0L723 0Z" fill="#00152b" stroke="#00152b"></path><path d="M900 191L900 135L825 168Z" fill="#001122" stroke="#001122"></path><path d="M74 176L0 272L92 285Z" fill="#001e47" stroke="#001e47"></path><path d="M0 189L0 272L74 176Z" fill="#272a7b" stroke="#272a7b"></path><path d="M0 189L74 176L0 120Z" fill="#032359" stroke="#032359"></path><path d="M0 120L74 176L104 70Z" fill="#272a7b" stroke="#272a7b"></path><path d="M699 600L781 600L698 530Z" fill="#002150" stroke="#002150"></path><path d="M900 514L900 436L782 466Z" fill="#00152b" stroke="#00152b"></path><path d="M0 0L0 120L104 70Z" fill="#001122" stroke="#001122"></path><path d="M0 272L0 433L92 285Z" fill="#1d2973" stroke="#1d2973"></path><path d="M900 135L900 0L807 85Z" fill="#002150" stroke="#002150"></path><path d="M781 600L900 514L782 466Z" fill="#001934" stroke="#001934"></path><path d="M113 526L76 600L238 600Z" fill="#0a2662" stroke="#0a2662"></path><path d="M0 494L76 600L113 526Z" fill="#1d2973" stroke="#1d2973"></path><path d="M0 433L0 494L109 432Z" fill="#001934" stroke="#001934"></path><path d="M126 0L0 0L104 70Z" fill="#14276a" stroke="#14276a"></path><path d="M781 600L900 600L900 514Z" fill="#001934" stroke="#001934"></path><path d="M0 494L0 600L76 600Z" fill="#1d2973" stroke="#1d2973"></path></g></svg>