<svg id="visual" viewBox="0 0 900 600" width="900" height="600" xmlns="http://www.w3.org/2000/svg" xmlns:xlink="http://www.w3.org/1999/xlink" version="1.1"><rect x="0" y="0" width="900" height="600" fill="#001220"></rect><path d="M0 439L21.5 436.7C43 434.3 86 429.7 128.8 418.7C171.7 407.7 214.3 390.3 257.2 392.3C300 394.3 343 415.7 385.8 427.2C428.7 438.7 471.3 440.3 514.2 438.5C557 436.7 600 431.3 642.8 421.5C685.7 411.7 728.3 397.3 771.2 390.7C814 384 857 385 878.5 385.5L900 386L900 601L878.5 601C857 601 814 601 771.2 601C728.3 601 685.7 601 642.8 601C600 601 557 601 514.2 601C471.3 601 428.7 601 385.8 601C343 601 300 601 257.2 601C214.3 601 171.7 601 128.8 601C86 601 43 601 21.5 601L0 601Z" fill="#4facf7"></path><path d="M0 416L21.5 422C43 428 86 440 128.8 443.7C171.7 447.3 214.3 442.7 257.2 437C300 431.3 343 424.7 385.8 418.5C428.7 412.3 471.3 406.7 514.2 407.8C557 409 600 417 642.8 428.3C685.7 439.7 728.3 454.3 771.2 449C814 443.7 857 418.3 878.5 405.7L900 393L900 601L878.5 601C857 601 814 601 771.2 601C728.3 601 685.7 601 642.8 601C600 601 557 601 514.2 601C471.3 601 428.7 601 385.8 601C343 601 300 601 257.2 601C214.3 601 171.7 601 128.8 601C86 601 43 601 21.5 601L0 601Z" fill="#2b9dfc"></path><path d="M0 487L21.5 484.2C43 481.3 86 475.7 128.8 467.5C171.7 459.3 214.3 448.7 257.2 452.2C300 455.7 343 473.3 385.8 473.5C428.7 473.7 471.3 456.3 514.2 455C557 453.7 600 468.3 642.8 480C685.7 491.7 728.3 500.3 771.2 496.8C814 493.3 857 477.7 878.5 469.8L900 462L900 601L878.5 601C857 601 814 601 771.2 601C728.3 601 685.7 601 642.8 601C600 601 557 601 514.2 601C471.3 601 428.7 601 385.8 601C343 601 300 601 257.2 601C214.3 601 171.7 601 128.8 601C86 601 43 601 21.5 601L0 601Z" fill="#008cff"></path><path d="M0 497L21.5 503.2C43 509.3 86 521.7 128.8 520.3C171.7 519 214.3 504 257.2 495.5C300 487 343 485 385.8 488.3C428.7 491.7 471.3 500.3 514.2 502.5C557 504.7 600 500.3 642.8 504.2C685.7 508 728.3 520 771.2 523.5C814 527 857 522 878.5 519.5L900 517L900 601L878.5 601C857 601 814 601 771.2 601C728.3 601 685.7 601 642.8 601C600 601 557 601 514.2 601C471.3 601 428.7 601 385.8 601C343 601 300 601 257.2 601C214.3 601 171.7 601 128.8 601C86 601 43 601 21.5 601L0 601Z" fill="#007aff"></path><path d="M0 567L21.5 563.8C43 560.7 86 554.3 128.8 554.3C171.7 554.3 214.3 560.7 257.2 558.2C300 555.7 343 544.3 385.8 543C428.7 541.7 471.3 550.3 514.2 550.7C557 551 600 543 642.8 539.7C685.7 536.3 728.3 537.7 771.2 539.8C814 542 857 545 878.5 546.5L900 548L900 601L878.5 601C857 601 814 601 771.2 601C728.3 601 685.7 601 642.8 601C600 601 557 601 514.2 601C471.3 601 428.7 601 385.8 601C343 601 300 601 257.2 601C214.3 601 171.7 601 128.8 601C86 601 43 601 21.5 601L0 601Z" fill="#0066ff"></path></svg>