<svg id="visual" viewBox="0 0 900 600" width="900" height="600" xmlns="http://www.w3.org/2000/svg" xmlns:xlink="http://www.w3.org/1999/xlink" version="1.1"><path d="M0 109L37.5 124C75 139 150 169 225 185C300 201 375 203 450 191C525 179 600 153 675 157C750 161 825 195 862.5 212L900 229L900 0L862.5 0C825 0 750 0 675 0C600 0 525 0 450 0C375 0 300 0 225 0C150 0 75 0 37.5 0L0 0Z" fill="#1e555c"></path><path d="M0 229L37.5 237C75 245 150 261 225 276C300 291 375 305 450 301C525 297 600 275 675 275C750 275 825 297 862.5 308L900 319L900 227L862.5 210C825 193 750 159 675 155C600 151 525 177 450 189C375 201 300 199 225 183C150 167 75 137 37.5 122L0 107Z" fill="#266c74"></path><path d="M0 439L37.5 440C75 441 150 443 225 454C300 465 375 485 450 493C525 501 600 497 675 485C750 473 825 453 862.5 443L900 433L900 317L862.5 306C825 295 750 273 675 273C600 273 525 295 450 299C375 303 300 289 225 274C150 259 75 243 37.5 235L0 227Z" fill="#2e848e"></path><path d="M0 601L37.5 601C75 601 150 601 225 601C300 601 375 601 450 601C525 601 600 601 675 601C750 601 825 601 862.5 601L900 601L900 431L862.5 441C825 451 750 471 675 483C600 495 525 499 450 491C375 483 300 463 225 452C150 441 75 439 37.5 438L0 437Z" fill="#379ca9"></path></svg>